<?xml version="1.0" encoding="UTF-8"?>
<svg width="252px" height="28px" viewBox="0 0 252 28" version="1.1" xmlns="http://www.w3.org/2000/svg" xmlns:xlink="http://www.w3.org/1999/xlink">
    <!-- Generator: Sketch 41.2 (35397) - http://www.bohemiancoding.com/sketch -->
    <title>masthead-helmet</title>
    <desc>Created with Sketch.</desc>
    <defs></defs>
    <g id="Page-1" stroke="none" stroke-width="1" fill="none" fill-rule="evenodd">
        <g id="Home" transform="translate(-20.000000, -11.000000)" fill="#FFFFFF">
            <g id="MSUHeader" transform="translate(-14.000000, 0.000000)">
                <g id="masthead-helmet" transform="translate(34.000000, 11.000000)">
                    <g id="SpartanHelmet">
                        <path d="M22.6791515,1.92690909 C22.6791515,1.92690909 21.224,5.04848485 20.4858182,6.59781818 C16.8653333,4.93224242 12.1197576,4.69551515 8.13272727,7.05769697 C5.47272727,8.68339394 3.32945455,11.5733333 3.10715152,14.6762424 C3.0350303,16.742303 3.93272727,19.0069091 3.63745455,21.0755152 C3.56278788,22.1827879 3.30739394,23.2892121 2.78981818,24.2471515 C2.12460606,25.3561212 1.32787879,26.3174545 0,26.3929697 C0.296121212,26.0230303 2.34860606,25.0107879 1.54169697,20.3610909 C1.2209697,18.5181818 -1.31260606,13.9473939 1.13527273,8.21757576 C3.37187879,2.9849697 13.0429091,-3.21321212 22.6791515,1.92690909 L22.6791515,1.92690909 L22.6791515,1.92690909 Z" id="Shape"></path>
                        <path d="M11.5953939,11.1007273 C12.850303,10.6501818 14.2511515,10.641697 15.5832727,10.9344242 C18.0930909,11.3798788 19.9741818,12.8961212 20.889697,15.1437576 C21.8476364,17.4991515 22.5374545,19.3997576 24.1835152,21.4132121 C24.2293333,21.4692121 21.6109091,21.0271515 21.6210909,20.9550303 C22.261697,16.2892121 17.8495758,16.0974545 16.6345455,17.8444848 C17.5509091,18.8507879 19.1206061,19.3658182 20.3407273,19.1723636 C20.0819394,23.8050909 21.3724848,28.0101818 21.3003636,28 C20.2482424,27.8549091 15.4339394,25.0218182 14.0271515,23.7923636 C11.957697,24.1614545 10.3370909,24.9250909 7.94266667,25.256 C7.86884848,25.2661818 8.38218182,23.4886061 8.30921212,22.6036364 C8.30921212,20.1650909 6.44084848,17.8809697 7.76363636,14.8858182 C8.55442424,13.0912727 9.74824242,11.7650909 11.5953939,11.1007273 L11.5953939,11.1007273 L11.5953939,11.1007273 Z" id="Shape"></path>
                        <path d="M13.329697,9.69648485 C13.4688485,9.69818182 13.6835152,9.73042424 13.6852121,9.71430303 C13.7259394,9.55478788 13.8574545,8.4 14.8408485,7.55490909 C15.9370909,6.61818182 17.3761212,6.71236364 17.3625455,6.7030303 C15.9277576,6.26521212 14.4505455,6.2329697 13.4272727,6.32290909 L13.329697,9.69648485 L13.329697,9.69648485 L13.329697,9.69648485 Z" id="Shape"></path>
                        <path d="M4.20424242,13.8998788 C3.9870303,15.2922424 3.97090909,16.577697 4.088,17.2624242 C4.09054545,17.274303 4.29333333,16.0855758 4.96787879,15.4178182 C5.55672727,14.8374545 6.30254545,14.7254545 6.57066667,14.7330909 C6.57066667,14.7305455 6.7030303,14.28 6.68521212,14.2791515 L4.20424242,13.8998788 L4.20424242,13.8998788 L4.20424242,13.8998788 Z" id="Shape"></path>
                        <path d="M6.98218182,13.6419394 C7.05515152,13.4578182 7.14084848,13.2957576 7.24860606,13.0844848 L4.70145455,12.094303 C4.54193939,12.4133333 4.42315152,12.8876364 4.36375758,13.1472727 L6.98218182,13.6419394 L6.98218182,13.6419394 L6.98218182,13.6419394 Z" id="Shape"></path>
                        <path d="M7.59733333,12.6712727 C7.60412121,12.6636364 8.00460606,12.1494545 8.01139394,12.1562424 L5.67551515,10.3981818 C5.43454545,10.7087273 5.236,11.0447273 5.07563636,11.4019394 L7.59733333,12.6712727 L7.59733333,12.6712727 L7.59733333,12.6712727 Z" id="Shape"></path>
                        <path d="M8.46618182,11.7141818 C8.47806061,11.7014545 8.98460606,11.2449697 8.98460606,11.2449697 L6.96012121,8.9430303 C6.50533333,9.33842424 6.36618182,9.51830303 6.08957576,9.85515152 L8.46618182,11.7141818 L8.46618182,11.7141818 L8.46618182,11.7141818 Z" id="Shape"></path>
                        <path d="M9.51575758,10.9166061 C9.52,10.9446061 10.0986667,10.5933333 10.109697,10.5678788 L8.60787879,7.83151515 C8.03260606,8.10812121 7.66606061,8.40593939 7.49721212,8.52387879 L9.51575758,10.9166061 L9.51575758,10.9166061 L9.51575758,10.9166061 Z" id="Shape"></path>
                        <path d="M10.6315152,10.3116364 C11.3476364,10.0681212 11.3467879,10.0596364 11.3467879,10.0723636 L10.4915152,6.99830303 C10.0180606,7.13830303 9.37490909,7.41321212 9.2230303,7.51248485 L10.6315152,10.3116364 L10.6315152,10.3116364 L10.6315152,10.3116364 Z" id="Shape"></path>
                        <path d="M11.9008485,9.89333333 C11.9254545,9.90775758 12.5482424,9.7550303 12.5550303,9.7550303 L12.6330909,6.42218182 C12.6076364,6.44763636 11.8618182,6.5630303 11.2246061,6.74036364 L11.9008485,9.89333333 L11.9008485,9.89333333 L11.9008485,9.89333333 Z" id="Shape"></path>
                    </g>
                    <g id="MSU" transform="translate(30.545455, 11.030303)">
                        <polygon id="Shape" points="0.510787879 0.497212121 2.89587879 0.497212121 5.53721212 4.7489697 8.18109091 0.497212121 10.5653333 0.497212121 10.5653333 10.5509091 8.36775758 10.5509091 8.36775758 3.98787879 5.53721212 8.28121212 5.48036364 8.28121212 2.67951515 4.02945455 2.67951515 10.5509091 0.510787879 10.5509091"></polygon>
                        <polygon id="Shape" points="13.077697 0.497212121 15.2888485 0.497212121 15.2888485 10.5509091 13.077697 10.5509091"></polygon>
                        <path d="M17.3566061,5.55248485 L17.3566061,5.52363636 C17.3566061,2.66593939 19.5109091,0.324121212 22.5985455,0.324121212 C24.4974545,0.324121212 25.6318788,0.956242424 26.5643636,1.876 L25.1558788,3.49830303 C24.3812121,2.79660606 23.5912727,2.36472727 22.5841212,2.36472727 C20.8888485,2.36472727 19.6704242,3.77236364 19.6704242,5.49563636 L19.6704242,5.52448485 C19.6704242,7.24860606 20.8608485,8.68593939 22.5841212,8.68593939 C23.7329697,8.68593939 24.4380606,8.22775758 25.228,7.50739394 L26.6356364,8.92945455 C25.6021818,10.0358788 24.4533333,10.725697 22.513697,10.725697 C19.5541818,10.7248485 17.3566061,8.44072727 17.3566061,5.55248485 L17.3566061,5.55248485 Z" id="Shape"></path>
                        <polygon id="Shape" points="28.4004848 0.497212121 30.6124848 0.497212121 30.6124848 4.47575758 34.6928485 4.47575758 34.6928485 0.497212121 36.9048485 0.497212121 36.9048485 10.5509091 34.6928485 10.5509091 34.6928485 6.51721212 30.6124848 6.51721212 30.6124848 10.5509091 28.4004848 10.5509091"></polygon>
                        <polygon id="Shape" points="39.4146667 0.497212121 41.6275152 0.497212121 41.6275152 10.5509091 39.4146667 10.5509091"></polygon>
                        <path d="M43.6944242,5.55248485 L43.6944242,5.52363636 C43.6944242,2.66593939 45.921697,0.324121212 48.9677576,0.324121212 C50.7767273,0.324121212 51.8678788,0.812848485 52.918303,1.70460606 L51.5242424,3.38460606 C50.7470303,2.73721212 50.0589091,2.3630303 48.8947879,2.3630303 C47.2869091,2.3630303 46.0065455,3.78509091 46.0065455,5.49393939 L46.0065455,5.52278788 C46.0065455,7.36315152 47.2716364,8.71309091 49.0517576,8.71309091 C49.8578182,8.71309091 50.5747879,8.51284848 51.1356364,8.10981818 L51.1356364,6.67248485 L48.9092121,6.67248485 L48.9092121,4.76339394 L53.2755152,4.76339394 L53.2755152,9.12884848 C52.2412121,10.0053333 50.818303,10.7248485 48.9804848,10.7248485 C45.8504242,10.7248485 43.6944242,8.52727273 43.6944242,5.55248485 L43.6944242,5.55248485 Z" id="Shape"></path>
                        <path d="M58.8466667,0.424242424 L60.8864242,0.424242424 L65.1967273,10.5500606 L62.8829091,10.5500606 L61.9631515,8.29563636 L57.7113939,8.29563636 L56.7916364,10.5500606 L54.5363636,10.5500606 L58.8466667,0.424242424 L58.8466667,0.424242424 Z M61.1749091,6.34327273 L59.8385455,3.08339394 L58.5013333,6.34327273 L61.1749091,6.34327273 L61.1749091,6.34327273 Z" id="Shape"></path>
                        <polygon id="Shape" points="66.7443636 0.497212121 68.7849697 0.497212121 73.4974545 6.68775758 73.4974545 0.497212121 75.6814545 0.497212121 75.6814545 10.5509091 73.7986667 10.5509091 68.9300606 4.1609697 68.9300606 10.5509091 66.7452121 10.5509091 66.7452121 0.497212121"></polygon>
                        <path d="M81.7099394,9.08727273 L83.0166061,7.5209697 C83.9219394,8.26763636 84.8713939,8.74193939 86.0202424,8.74193939 C86.9230303,8.74193939 87.4694545,8.38218182 87.4694545,7.79333333 L87.4694545,7.76448485 C87.4694545,7.20448485 87.1258182,6.91684848 85.4449697,6.48666667 C83.4196364,5.96993939 82.1104242,5.40909091 82.1104242,3.41345455 L82.1104242,3.38460606 C82.1104242,1.55951515 83.5757576,0.351272727 85.6307879,0.351272727 C87.0969697,0.351272727 88.3450909,0.812 89.3658182,1.63163636 L88.2169697,3.29721212 C87.3260606,2.67866667 86.4495758,2.30618182 85.6019394,2.30618182 C84.754303,2.30618182 84.3105455,2.69309091 84.3105455,3.18181818 L84.3105455,3.20981818 C84.3105455,3.87078788 84.7407273,4.08630303 86.4784242,4.53345455 C88.5181818,5.06460606 89.6678788,5.79515152 89.6678788,7.5489697 L89.6678788,7.57866667 C89.6678788,9.576 88.1448485,10.6951515 85.9761212,10.6951515 C84.4530909,10.6951515 82.9173333,10.164 81.7099394,9.08727273 L81.7099394,9.08727273 Z" id="Shape"></path>
                        <polygon id="Shape" points="93.717697 2.5369697 90.6563636 2.5369697 90.6563636 0.497212121 98.9876364 0.497212121 98.9876364 2.5369697 95.929697 2.5369697 95.929697 10.5509091 93.717697 10.5509091 93.717697 2.5369697"></polygon>
                        <path d="M102.836364,0.424242424 L104.874424,0.424242424 L109.183879,10.5500606 L106.870909,10.5500606 L105.952848,8.29563636 L101.701091,8.29563636 L100.780485,10.5500606 L98.5260606,10.5500606 L102.836364,0.424242424 L102.836364,0.424242424 Z M105.161212,6.34327273 L103.826545,3.08339394 L102.491879,6.34327273 L105.161212,6.34327273 L105.161212,6.34327273 Z" id="Shape"></path>
                        <polygon id="Shape" points="111.783636 2.5369697 108.724848 2.5369697 108.724848 0.497212121 117.055273 0.497212121 117.055273 2.5369697 113.994788 2.5369697 113.994788 10.5509091 111.784485 10.5509091 111.784485 2.5369697"></polygon>
                        <polygon id="Shape" points="118.748848 0.497212121 126.332606 0.497212121 126.332606 2.46484848 120.945576 2.46484848 120.945576 4.50545455 125.685212 4.50545455 125.685212 6.47309091 120.945576 6.47309091 120.945576 8.58327273 126.404727 8.58327273 126.404727 10.5500606 118.748848 10.5500606"></polygon>
                        <path d="M132.806545,6.37127273 L132.806545,0.497212121 L133.554909,0.497212121 L133.554909,6.29915152 C133.554909,8.66981818 134.833576,10.0341818 136.959879,10.0341818 C138.998788,10.0341818 140.306303,8.80048485 140.306303,6.37127273 L140.306303,0.497212121 L141.05297,0.497212121 L141.05297,6.28472727 C141.05297,9.17127273 139.372121,10.7104242 136.93103,10.7104242 C134.516242,10.7104242 132.806545,9.18654545 132.806545,6.37127273 L132.806545,6.37127273 Z" id="Shape"></path>
                        <polygon id="Shape" points="143.879273 0.497212121 144.584364 0.497212121 151.523273 9.24509091 151.523273 0.497212121 152.241091 0.497212121 152.241091 10.5509091 151.681091 10.5509091 144.598788 1.61721212 144.598788 10.5509091 143.879273 10.5509091 143.879273 0.497212121"></polygon>
                        <polygon id="Shape" points="155.327879 0.497212121 156.072 0.497212121 156.072 10.5509091 155.327879 10.5509091"></polygon>
                        <polygon id="Shape" points="158.299273 0.497212121 159.130788 0.497212121 163.068606 9.74654545 167.018303 0.497212121 167.807394 0.497212121 163.384242 10.6238788 162.722424 10.6238788"></polygon>
                        <polygon id="Shape" points="169.931152 0.497212121 177.086424 0.497212121 177.086424 1.18618182 170.677818 1.18618182 170.677818 5.13672727 176.43903 5.13672727 176.43903 5.82569697 170.677818 5.82569697 170.677818 9.86278788 177.156 9.86278788 177.156 10.5509091 169.931152 10.5509091"></polygon>
                        <path d="M179.556364,0.497212121 L183.776727,0.497212121 C185.013818,0.497212121 186.005697,0.884969697 186.60897,1.48739394 C187.080727,1.96254545 187.369212,2.63624242 187.369212,3.35660606 L187.369212,3.38545455 C187.369212,5.06545455 186.118545,6.02678788 184.423273,6.25842424 L187.74,10.5517576 L186.794788,10.5517576 L183.590909,6.38739394 L180.298788,6.38739394 L180.298788,10.5517576 L179.556364,10.5517576 L179.556364,0.497212121 L179.556364,0.497212121 Z M183.689333,5.71030303 C185.372727,5.71030303 186.621697,4.86266667 186.621697,3.41345455 L186.621697,3.38460606 C186.621697,2.0329697 185.557697,1.18533333 183.735152,1.18533333 L180.298788,1.18533333 L180.298788,5.71030303 L183.689333,5.71030303 L183.689333,5.71030303 Z" id="Shape"></path>
                        <path d="M189.29103,9.08727273 L189.781455,8.52727273 C190.884485,9.54630303 191.906061,10.0206061 193.385818,10.0206061 C194.894424,10.0206061 195.927879,9.17212121 195.927879,8.02327273 L195.927879,7.99442424 C195.927879,6.93127273 195.365333,6.31357576 193.082909,5.85454545 C190.668121,5.36751515 189.694061,4.54957576 189.694061,3.02569697 L189.694061,2.99515152 C189.694061,1.5009697 191.057576,0.351272727 192.926788,0.351272727 C194.391273,0.351272727 195.353455,0.755151515 196.373333,1.57309091 L195.89903,2.16193939 C194.951273,1.344 194.000121,1.02666667 192.897939,1.02666667 C191.417333,1.02666667 190.43903,1.87430303 190.43903,2.92218182 L190.43903,2.9510303 C190.43903,4.01418182 190.986303,4.66157576 193.368848,5.14945455 C195.695394,5.62460606 196.673697,6.45781818 196.673697,7.92315152 L196.673697,7.952 C196.673697,9.57515152 195.279636,10.694303 193.34,10.694303 C191.732121,10.6951515 190.495879,10.164 189.29103,9.08727273 L189.29103,9.08727273 Z" id="Shape"></path>
                        <polygon id="Shape" points="199.229333 0.497212121 199.976848 0.497212121 199.976848 10.5509091 199.229333 10.5509091"></polygon>
                        <polygon id="Shape" points="205.849212 1.18533333 202.344121 1.18533333 202.344121 0.496363636 210.100121 0.496363636 210.100121 1.18533333 206.598424 1.18533333 206.598424 10.5500606 205.849212 10.5500606"></polygon>
                        <polygon id="Shape" points="215.645818 6.57236364 211.33297 0.497212121 212.268 0.497212121 216.033576 5.89866667 219.808485 0.497212121 220.702788 0.497212121 216.389939 6.55878788 216.389939 10.5509091 215.646667 10.5509091 215.646667 6.57236364"></polygon>
                    </g>
                </g>
            </g>
        </g>
    </g>
</svg>