<?xml version="1.0" encoding="UTF-8"?>
<svg width="179px" height="39px" viewBox="0 0 179 39" version="1.1" xmlns="http://www.w3.org/2000/svg" xmlns:xlink="http://www.w3.org/1999/xlink">
    <!-- Generator: Sketch 41.2 (35397) - http://www.bohemiancoding.com/sketch -->
    <title>MichiganStateUniversity</title>
    <desc>Created with Sketch.</desc>
    <defs></defs>
    <g id="Page-1" stroke="none" stroke-width="1" fill="none" fill-rule="evenodd">
        <g id="Home" transform="translate(-163.000000, -2919.000000)" fill="#FFFFFF">
            <g id="Footer" transform="translate(0.000000, 2703.000000)">
                <g id="MsuFooter" transform="translate(163.000000, 214.000000)">
                    <g id="MichiganStateUniversity" transform="translate(0.000000, 2.000000)">
                        <path d="M2.95056364,27.405099 L2.95056364,34.2776532 C2.95056364,35.4254243 3.32445455,37.0507737 5.35263636,37.0507737 C7.20974545,37.0507737 7.88080909,35.7701954 7.88080909,34.146605 L7.84906364,27.405099 C7.84906364,27.0277857 7.66211818,26.797352 7.42843636,26.6645448 L9.23792727,26.6645448 C9.00336364,26.797352 8.83229091,27.0277857 8.83229091,27.405099 L8.78555455,34.1131833 C8.78555455,36.9021351 7.20974545,37.9848219 5.08720909,37.9848219 C3.26184545,37.9848219 0.937372727,37.1325689 0.937372727,34.2284002 L0.937372727,27.405099 C0.937372727,27.0277857 0.687818182,26.797352 0.438263636,26.6645448 L3.4338,26.6645448 C3.18424545,26.797352 2.95056364,27.0277857 2.95056364,27.405099" id="Fill-1"></path>
                        <path d="M29.3178091,27.405099 C29.3178091,27.0277857 29.1626091,26.797352 28.9130545,26.6645448 L30.6449455,26.6645448 C30.4103818,26.797352 30.2384273,27.0277857 30.2384273,27.405099 L30.2384273,38.2803399 C30.2384273,38.2803399 22.7500273,28.9961472 22.7500273,28.8642195 L22.7500273,37.0824363 C22.7500273,37.4430387 22.9211,37.6734725 23.1865273,37.820352 L21.4546364,37.820352 C21.6883182,37.6734725 21.8602727,37.4430387 21.8602727,37.0824363 L21.8602727,28.3233159 C21.8602727,27.6821472 21.8752636,27.6663159 21.5798545,27.2890026 C21.4228909,27.0919906 21.2042,26.8624363 20.8770455,26.6645448 L23.5604182,26.6645448 L29.3178091,33.8836291 L29.3178091,27.405099" id="Fill-2"></path>
                        <path d="M45.8880545,26.6645448 C45.6226273,26.797352 45.4824182,27.0277857 45.4824182,27.405099 L45.4824182,37.0824363 C45.4824182,37.4430387 45.6226273,37.6734725 45.8880545,37.820352 L43.0635909,37.820352 C43.3131455,37.6734725 43.4692273,37.4430387 43.4692273,37.0824363 L43.4692273,27.405099 C43.4692273,27.0277857 43.3131455,26.797352 43.0635909,26.6645448 L45.8880545,26.6645448" id="Fill-3"></path>
                        <path d="M64.9079909,27.4860146 C65.0482,27.0594484 64.9855909,26.8298942 64.5799545,26.6645448 L66.4838,26.6645448 C66.0781636,26.945111 66.0473,27.0594484 65.8912182,27.4534725 C65.6257909,28.0928821 61.8648364,38.1660026 61.8648364,38.1660026 C61.8648364,38.1660026 57.7926,28.0594604 57.4963091,27.4534725 C57.3093636,27.1245327 57.1224182,26.8624363 56.6532909,26.6645448 L60.1020818,26.6645448 C59.6964455,26.8298942 59.6647,27.1746653 59.7740455,27.5686893 C59.8057909,27.7155689 62.4115636,34.4588339 62.4115636,34.4588339 C62.4115636,34.4588339 64.8921182,27.6012315 64.9079909,27.4860146" id="Fill-4"></path>
                        <path d="M83.8494455,28.109593 C83.5531545,27.6821472 83.2251182,27.551099 82.6325364,27.5185568 C82.1642909,27.4860146 79.9800273,27.4860146 79.9800273,27.4860146 L79.9800273,31.2600267 L82.3353636,31.2600267 C82.5540545,31.2600267 82.8194818,30.9970508 82.8979636,30.8000387 L82.8979636,32.5379665 C82.8194818,32.3092918 82.5540545,32.0630267 82.3353636,32.0630267 L79.9800273,32.0630267 L79.9800273,36.8863038 C80.2921909,36.9346773 81.2436727,37.0015207 82.0082091,36.968099 C83.3653273,36.9346773 83.9896545,36.968099 84.5672455,35.9346653 L84.2392091,37.820352 L77.5303364,37.820352 C77.7948818,37.6567616 77.9977,37.4764604 77.9977,37.0824363 L77.9977,27.405099 C77.9977,27.0277857 77.7798909,26.797352 77.5303364,26.6645448 L83.8018273,26.6645448 L83.8494455,28.109593" id="Fill-5"></path>
                        <path d="M98.6393,27.4860146 L98.6393,31.7675086 C98.6393,31.7675086 99.0766818,31.8009303 99.3421091,31.8009303 C100.403818,31.8009303 101.527255,31.177352 101.527255,29.5203399 C101.527255,28.7657134 101.088991,27.4534725 99.5458091,27.4534725 C99.0766818,27.4534725 98.6393,27.4860146 98.6393,27.4860146 L98.6393,27.4860146 Z M100.949664,32.1615327 C102.010491,32.2758701 102.478736,33.0304966 102.711536,33.392858 C102.711536,33.392858 104.5854,36.5089906 105.131245,37.165111 C105.427536,37.5582556 106.129464,37.820352 106.129464,37.820352 L104.1004,37.8537737 C103.507818,37.8537737 102.992836,37.4764604 102.711536,37.0824363 C102.010491,36.0490026 101.324436,34.8519785 100.761836,33.9337616 C100.3562,33.2767616 99.9973,32.5713881 99.3262364,32.5713881 C99.1392909,32.5713881 98.6393,32.6048098 98.6393,32.6048098 L98.6393,37.0824363 C98.6393,37.4430387 98.8121364,37.6734725 99.0766818,37.820352 L96.2531,37.820352 C96.5026545,37.6734725 96.6587364,37.4430387 96.6587364,37.0824363 L96.6587364,27.405099 C96.6587364,27.0277857 96.5026545,26.797352 96.2531,26.6645448 L99.6234091,26.6645448 C102.852627,26.6645448 103.585418,28.3233159 103.585418,29.4218339 C103.585418,31.1931833 102.057227,32.078858 100.949664,32.1615327 L100.949664,32.1615327 Z" id="Fill-6"></path>
                        <path d="M123.246436,34.5397496 C123.246436,36.5907857 121.530418,37.9848219 119.6107,37.9848219 C118.190091,37.9848219 117.161891,37.4764604 116.615164,37.1976532 L116.538445,34.4245327 C116.832973,35.5907737 117.770345,37.1325689 119.392009,37.1325689 C120.936955,37.1325689 121.4052,35.9680869 121.4052,35.1642074 C121.4052,33.5889906 120.048964,33.3752677 118.627473,32.5713881 C117.191873,31.7349665 116.568427,30.8492918 116.568427,29.6012556 C116.568427,27.3707978 118.549873,26.4851231 119.9696,26.4851231 C120.500455,26.4851231 121.530418,26.6003399 122.324936,27.0919906 L122.403418,29.5203399 C122.185609,28.6504966 121.295855,27.3382556 119.797645,27.3382556 C118.612482,27.3382556 118.144236,28.208099 118.144236,28.9134725 C118.144236,29.9134845 118.8153,30.2907978 120.281764,30.9970508 C121.733236,31.7182556 123.246436,32.2609183 123.246436,34.5397496" id="Fill-7"></path>
                        <path d="M138.255864,26.6645448 C137.990436,26.797352 137.849345,27.0277857 137.849345,27.405099 L137.849345,37.0824363 C137.849345,37.4430387 137.990436,37.6734725 138.255864,37.820352 L135.432282,37.820352 C135.680955,37.6734725 135.837918,37.4430387 135.837918,37.0824363 L135.837918,27.405099 C135.837918,27.0277857 135.680955,26.797352 135.432282,26.6645448 L138.255864,26.6645448" id="Fill-8"></path>
                        <path d="M155.200882,27.4860146 L155.200882,37.0824363 C155.200882,37.4430387 155.372836,37.6734725 155.606518,37.820352 L152.812918,37.820352 C153.062473,37.6734725 153.219436,37.4430387 153.219436,37.0824363 L153.219436,27.4860146 C152.064255,27.4860146 150.722127,27.6012315 150.722127,27.6012315 C150.347355,27.6012315 150.082809,27.9785448 149.9426,28.2564725 L149.9426,26.6645448 L158.493591,26.6645448 L158.493591,28.2564725 C158.3525,27.9785448 158.132927,27.6337737 157.759036,27.6012315 C157.759036,27.6012315 156.339309,27.4860146 155.200882,27.4860146" id="Fill-9"></path>
                        <path d="M178.213691,26.6645448 C177.728691,26.8298942 177.370673,27.2890026 177.182845,27.6663159 L174.6873,32.6531833 L174.6873,37.0824363 C174.6873,37.4430387 174.982709,37.6734725 175.233145,37.820352 L172.112391,37.820352 C172.346955,37.6734725 172.643245,37.4764604 172.643245,37.0824363 L172.643245,32.7191472 L169.5851,27.4534725 C169.365527,27.0594484 169.195336,26.8949785 168.773827,26.6645448 L172.299336,26.6645448 C171.909573,26.8298942 171.644145,26.9116893 172.049782,27.6821472 L174.249918,31.7182556 L176.309845,27.4860146 C176.528536,27.1245327 176.418309,26.7806412 175.981809,26.6645448 L178.213691,26.6645448" id="Fill-10"></path>
                        <path d="M12.5588545,0.938641154 L16.2219273,0.938641154 C15.8753727,1.1207014 15.6584455,1.43996646 15.6584455,1.96327971 L15.6584455,15.4058339 C15.6584455,15.9071592 15.8753727,16.2264243 16.2219273,16.431352 L12.3419273,16.431352 C12.6893636,16.2264243 12.9054091,15.9071592 12.9054091,15.4058339 L12.9054091,3.94571344 C12.9054091,3.67306284 12.9495,3.42240019 12.9495,3.42240019 L12.7537364,3.94571344 L7.55277273,16.7497375 L2.30771818,4.30983393 L2.15604545,3.69593031 L2.15604545,4.30983393 L2.15604545,15.4058339 C2.15604545,15.9071592 2.39501818,16.2264243 2.76273636,16.431352 L0.357136364,16.431352 C0.682527273,16.2264243 0.920618182,15.9071592 0.920618182,15.4058339 L0.920618182,1.96327971 C0.920618182,1.53055682 0.574063636,1.1207014 0.227509091,0.938641154 L4.04137273,0.938641154 L8.37639091,11.396111 L12.5588545,0.938641154" id="Fill-11"></path>
                        <path d="M23.6530091,0.938641154 C23.2852909,1.1207014 23.0895273,1.43996646 23.0895273,1.96327971 L23.0895273,15.4058339 C23.0895273,15.9071592 23.2852909,16.2264243 23.6530091,16.431352 L19.7306818,16.431352 C20.0772364,16.2264243 20.2941636,15.9071592 20.2941636,15.4058339 L20.2941636,1.96327971 C20.2941636,1.43996646 20.0772364,1.1207014 19.7306818,0.938641154 L23.6530091,0.938641154" id="Fill-12"></path>
                        <path d="M40.2752818,5.40395441 C38.9525545,2.23680983 36.4173273,1.91842429 35.3767818,1.91842429 C31.6713818,1.91842429 29.5691273,4.76630381 29.5691273,8.43389417 C29.5691273,11.5553038 31.0638091,15.4058339 35.5284545,15.4058339 C36.5469545,15.4058339 38.9966455,15.0408339 40.4269545,11.9194243 C40.4701636,11.8288339 40.2320727,15.2009062 40.2320727,15.2009062 C38.4322818,16.2712797 36.5037455,16.6591472 34.7268818,16.6591472 C30.4571182,16.6591472 26.6644182,13.5834725 26.6644182,8.73029176 C26.6644182,4.74343634 29.4818273,0.687978504 34.9870182,0.687978504 C36.7638818,0.687978504 38.3890727,1.05209899 40.0795182,1.87268935 C40.0795182,1.87268935 40.3184909,5.49542429 40.2752818,5.40395441" id="Fill-13"></path>
                        <path d="M52.9734636,0.938641154 L56.8957909,0.938641154 C56.5271909,1.1207014 56.2891,1.43996646 56.2891,1.96327971 L56.2891,15.4058339 C56.2891,15.9071592 56.5271909,16.2264243 56.8957909,16.431352 L52.9734636,16.431352 C53.3200182,16.2264243 53.5369455,15.9071592 53.5369455,15.4058339 L53.5369455,8.43389417 L46.7972091,8.43389417 L46.7972091,15.4058339 C46.7972091,15.9071592 46.9920909,16.2264243 47.3598091,16.431352 L43.4374818,16.431352 C43.7840364,16.2264243 44.0009636,15.9071592 44.0009636,15.4058339 L44.0009636,1.96327971 C44.0009636,1.43996646 43.7840364,1.1207014 43.4374818,0.938641154 L47.3598091,0.938641154 C46.9920909,1.1207014 46.7972091,1.43996646 46.7972091,1.96327971 L46.7972091,7.31778573 L53.5369455,7.31778573 L53.5369455,1.96327971 C53.5369455,1.43996646 53.3200182,1.1207014 52.9734636,0.938641154" id="Fill-14"></path>
                        <path d="M64.3057091,0.938641154 C63.9379909,1.1207014 63.7422273,1.43996646 63.7422273,1.96327971 L63.7422273,15.4058339 C63.7422273,15.9071592 63.9379909,16.2264243 64.3057091,16.431352 L60.3833818,16.431352 C60.7299364,16.2264243 60.9468636,15.9071592 60.9468636,15.4058339 L60.9468636,1.96327971 C60.9468636,1.43996646 60.7299364,1.1207014 60.3833818,0.938641154 L64.3057091,0.938641154" id="Fill-15"></path>
                        <path d="M80.7974727,1.87268935 L80.9500273,5.49542429 C79.8451091,2.3960026 77.0920727,1.91842429 76.0735727,1.91842429 C72.3893364,1.91842429 70.2650364,4.76630381 70.2650364,8.43389417 C70.2650364,11.5553038 71.7385545,15.4058339 76.2252455,15.4058339 C76.6802636,15.4058339 77.9589,15.360099 78.9774,14.653846 L78.9774,10.689858 C78.9774,10.1656653 78.7604727,9.84640019 78.4139182,9.64147248 L82.2930364,9.64147248 C81.9685273,9.84640019 81.7304364,10.1656653 81.7304364,10.689858 L81.7304364,14.0619303 C81.7304364,14.5166412 81.9685273,14.9273761 82.0769909,14.9959785 C80.2560364,16.066352 77.1784909,16.6591472 75.4448364,16.6591472 C71.1318636,16.6591472 67.318,13.5834725 67.318,8.73029176 C67.318,4.74343634 70.1565727,0.687978504 75.7049727,0.687978504 C77.4818364,0.687978504 79.0858636,1.09783393 80.7974727,1.87268935" id="Fill-16"></path>
                        <path d="M91.8493,10.9633881 C90.8299182,8.43389417 89.6385818,5.38108694 89.6385818,5.38108694 C89.6385818,5.38108694 88.1650636,9.25448453 87.4710727,10.9633881 L91.8493,10.9633881 L91.8493,10.9633881 Z M96.6172909,15.314364 C96.8333364,15.7928219 96.9850091,16.0434845 97.7001636,16.431352 L93.0626818,16.431352 C93.6261636,16.1120869 93.7337455,15.7928219 93.5829545,15.314364 C93.5177,15.0865689 92.9542182,13.6969303 92.3466455,12.148099 L87.0372182,12.148099 C86.3873182,13.6969303 85.8670455,15.0408339 85.8238364,15.2914966 C85.6289545,15.8385568 85.7374182,16.1578219 86.3229455,16.431352 L83.3318182,16.431352 C83.9376273,15.9977496 84.1333909,15.7479665 84.3503182,15.314364 C84.7621273,14.4489183 90.4630818,0.460183323 90.4630818,0.460183323 C90.4630818,0.460183323 96.2266455,14.4489183 96.6172909,15.314364 L96.6172909,15.314364 Z" id="Fill-17"></path>
                        <path d="M109.966255,1.96327971 C109.966255,1.43996646 109.748445,1.1207014 109.402773,0.938641154 L111.807491,0.938641154 C111.482982,1.1207014 111.244891,1.43996646 111.244891,1.96327971 L111.244891,17.0690026 C111.244891,17.0690026 100.8412,4.17350862 100.8412,3.99144838 L100.8412,15.4058339 C100.8412,15.9071592 101.080173,16.2264243 101.448773,16.431352 L99.0422909,16.431352 C99.3685636,16.2264243 99.6057727,15.9071592 99.6057727,15.4058339 L99.6057727,3.23946043 C99.6057727,2.35114718 99.6278182,2.32827971 99.2160091,1.80408694 C98.9990818,1.53055682 98.6957364,1.21217127 98.2398364,0.938641154 L101.969045,0.938641154 L109.966255,10.9633881 L109.966255,1.96327971" id="Fill-18"></path>
                        <path d="M129.576127,11.8745689 C129.576127,14.7224484 127.193455,16.6591472 124.525955,16.6591472 C122.554209,16.6591472 121.1239,15.9528942 120.364655,15.5650267 L120.257073,11.7153761 C120.669764,13.3328098 121.969564,15.4744363 124.224373,15.4744363 C126.368073,15.4744363 127.019736,13.8570026 127.019736,12.7400146 C127.019736,10.5526532 125.133527,10.2571351 123.161782,9.14014718 C121.167991,7.97830381 120.301164,6.74873754 120.301164,5.01696646 C120.301164,1.91842429 123.053318,0.687978504 125.025064,0.687978504 C125.762264,0.687978504 127.193455,0.847171275 128.297491,1.53055682 L128.405073,4.90262911 C128.103491,3.69593031 126.867182,1.87268935 124.787855,1.87268935 C123.139736,1.87268935 122.489836,3.08026766 122.489836,4.06005079 C122.489836,5.44968935 123.421036,5.97388212 125.458918,6.95278573 C127.474755,7.95543634 129.576127,8.70742429 129.576127,11.8745689" id="Fill-19"></path>
                        <path d="M138.225,2.07849658 L138.225,15.4058339 C138.225,15.9071592 138.463091,16.2264243 138.789364,16.431352 L134.909364,16.431352 C135.255036,16.2264243 135.472845,15.9071592 135.472845,15.4058339 L135.472845,2.07849658 C133.868818,2.07849658 132.003773,2.23680983 132.003773,2.23680983 C131.484382,2.23680983 131.1149,2.7610026 130.9209,3.14799055 L130.9209,0.938641154 L142.798109,0.938641154 L142.798109,3.14799055 C142.602345,2.7610026 142.299882,2.28254477 141.779609,2.23680983 C141.779609,2.23680983 139.8061,2.07849658 138.225,2.07849658" id="Fill-20"></path>
                        <path d="M149.318273,10.9633881 C148.299773,8.43389417 147.107555,5.38108694 147.107555,5.38108694 C147.107555,5.38108694 145.634918,9.25448453 144.940927,10.9633881 L149.318273,10.9633881 L149.318273,10.9633881 Z M154.086264,15.314364 C154.304073,15.7928219 154.454864,16.0434845 155.1709,16.431352 L150.533418,16.431352 C151.096018,16.1120869 151.204482,15.7928219 151.052809,15.314364 C150.987555,15.0865689 150.424073,13.6969303 149.817382,12.148099 L144.507955,12.148099 C143.857173,13.6969303 143.3369,15.0408339 143.293691,15.2914966 C143.097927,15.8385568 143.207273,16.1578219 143.7928,16.431352 L140.800791,16.431352 C141.407482,15.9977496 141.602364,15.7479665 141.820173,15.314364 C142.231982,14.4489183 147.932055,0.460183323 147.932055,0.460183323 C147.932055,0.460183323 153.6965,14.4489183 154.086264,15.314364 L154.086264,15.314364 Z" id="Fill-21"></path>
                        <path d="M160.828645,2.07849658 L160.828645,15.4058339 C160.828645,15.9071592 161.066736,16.2264243 161.391245,16.431352 L157.513009,16.431352 C157.858682,16.2264243 158.075609,15.9071592 158.075609,15.4058339 L158.075609,2.07849658 C156.472464,2.07849658 154.6083,2.23680983 154.6083,2.23680983 C154.088909,2.23680983 153.719427,2.7610026 153.524545,3.14799055 L153.524545,0.938641154 L165.399991,0.938641154 L165.399991,3.14799055 C165.205991,2.7610026 164.902645,2.28254477 164.382373,2.23680983 C164.382373,2.23680983 162.409745,2.07849658 160.828645,2.07849658" id="Fill-22"></path>
                        <path d="M176.516191,2.94394236 C176.105264,2.35114718 175.651127,2.16908694 174.826627,2.123352 C174.176727,2.07849658 171.142391,2.07849658 171.142391,2.07849658 L171.142391,7.31778573 L174.414818,7.31778573 C174.717282,7.31778573 175.085882,6.95278573 175.195227,6.68013513 L175.195227,9.09529176 C175.085882,8.7760267 174.717282,8.43389417 174.414818,8.43389417 L171.142391,8.43389417 L171.142391,15.1323038 C171.576245,15.2009062 172.897209,15.2914966 173.9598,15.2466412 C175.845127,15.2009062 176.711955,15.2466412 177.514409,13.8112677 L177.059391,16.431352 L167.740336,16.431352 C168.108055,16.2035568 168.390236,15.9528942 168.390236,15.4058339 L168.390236,1.96327971 C168.390236,1.43996646 168.086009,1.1207014 167.740336,0.938641154 L176.4527,0.938641154 L176.516191,2.94394236" id="Fill-23"></path>
                        <polygon id="Fill-24" points="0.1843 20.4498701 177.887418 20.4498701 177.887418 21.6477737 0.1843 21.6477737"></polygon>
                    </g>
                </g>
            </g>
        </g>
    </g>
</svg>