<?xml version="1.0" encoding="UTF-8"?>
<svg width="28px" height="27px" viewBox="0 0 28 27" version="1.1" xmlns="http://www.w3.org/2000/svg" xmlns:xlink="http://www.w3.org/1999/xlink">
    <!-- Generator: Sketch 41.2 (35397) - http://www.bohemiancoding.com/sketch -->
    <title>rss</title>
    <desc>Created with Sketch.</desc>
    <defs></defs>
    <g id="Page-1" stroke="none" stroke-width="1" fill="none" fill-rule="evenodd">
        <g id="Home" transform="translate(-817.000000, -2817.000000)" fill="#FFFFFF">
            <g id="Footer" transform="translate(0.000000, 2703.000000)">
                <g id="rss" transform="translate(801.000000, 100.000000)">
                    <path d="M36.2742,22.6414 C30.0272,15.0994 18.0842,14.2894 18.0842,14.2894 C17.2852,14.2894 16.6322,14.8524 16.6322,15.6514 L16.6322,18.1844 C16.6322,18.9834 17.2852,19.5464 18.0842,19.5464 C18.0842,19.5464 26.6162,19.8164 31.4232,25.5114 C38.0192,32.2994 37.5122,39.0754 37.5122,39.0754 C37.5122,39.8744 38.1652,40.5274 38.9642,40.5274 L41.7672,40.5274 C42.5662,40.5274 43.0392,39.8744 43.0392,39.0754 C43.0502,39.0644 42.4542,28.3934 36.2742,22.6414 M20.3922,33.3574 C18.4112,33.3574 16.8012,34.9664 16.8012,36.9474 C16.8012,38.9404 18.4112,40.5384 20.3922,40.5384 C22.3732,40.5384 23.9822,38.9284 23.9822,36.9474 C23.9822,34.9664 22.3842,33.3574 20.3922,33.3574 M29.1602,27.6844 C25.1872,23.9584 18.0842,23.0804 18.0842,23.0804 C17.2852,23.0804 16.6322,23.6324 16.6322,24.4424 L16.6322,26.9754 C16.6322,27.7744 17.2852,28.3374 18.0842,28.3374 C18.0842,28.3374 22.6542,28.4604 25.3892,31.0044 C29.0142,34.3584 28.9132,39.0184 28.9132,39.0184 C28.9132,39.8184 29.2952,40.4714 30.0942,40.4714 L32.8972,40.4714 C33.6962,40.4714 33.8882,39.8184 33.8882,39.0184 C33.8992,39.0074 33.2242,31.4884 29.1602,27.6844"></path>
                </g>
            </g>
        </g>
    </g>
</svg>