<?xml version="1.0" encoding="UTF-8"?>
<svg width="29px" height="24px" viewBox="0 0 29 24" version="1.1" xmlns="http://www.w3.org/2000/svg" xmlns:xlink="http://www.w3.org/1999/xlink">
    <!-- Generator: Sketch 41.2 (35397) - http://www.bohemiancoding.com/sketch -->
    <title>twitter</title>
    <desc>Created with Sketch.</desc>
    <defs></defs>
    <g id="Page-1" stroke="none" stroke-width="1" fill="none" fill-rule="evenodd">
        <g id="Home" transform="translate(-484.000000, -2821.000000)" fill="#FFFFFF">
            <g id="Footer" transform="translate(0.000000, 2703.000000)">
                <g id="twitter" transform="translate(468.000000, 100.000000)">
                    <path d="M40.9827,21.8362 C42.9867,20.5302 43.1667,18.7292 43.1667,18.7292 C42.5137,19.6302 39.6317,20.1032 39.6317,20.1032 C37.1557,17.1762 33.4407,18.7292 33.4407,18.7292 C29.0737,20.2832 29.7267,25.3482 29.7267,25.3482 C22.1177,25.2242 17.9867,19.3822 17.9867,19.3822 C15.7127,24.1552 19.5517,27.0482 19.5517,27.0482 C18.6957,27.1382 17.1647,26.4512 17.1647,26.4512 C17.1087,30.8412 21.6447,32.3832 21.6447,32.3832 C21.2287,32.4392 19.2807,32.4392 19.2807,32.4392 C20.2827,36.0192 24.5267,36.3792 24.5267,36.3792 C20.3957,39.4852 16.2647,38.9452 16.2647,38.9452 C20.3397,42.0522 24.3687,41.7142 27.1157,41.3312 C33.8797,40.3862 37.5047,35.4332 37.5047,35.4332 C42.2767,29.2872 40.6897,24.0982 41.4557,23.7952 C41.4667,23.7952 41.4777,23.7832 41.4897,23.7722 C42.2767,23.4122 44.1007,21.1042 44.1007,21.1042 C42.8057,21.8362 40.9827,21.8362 40.9827,21.8362"></path>
                </g>
            </g>
        </g>
    </g>
</svg>