<?xml version="1.0" encoding="UTF-8"?>
<svg width="32px" height="25px" viewBox="0 0 32 25" version="1.1" xmlns="http://www.w3.org/2000/svg" xmlns:xlink="http://www.w3.org/1999/xlink">
    <!-- Generator: Sketch 41.2 (35397) - http://www.bohemiancoding.com/sketch -->
    <title>youtube</title>
    <desc>Created with Sketch.</desc>
    <defs></defs>
    <g id="Page-1" stroke="none" stroke-width="1" fill="none" fill-rule="evenodd">
        <g id="Home" transform="translate(-730.000000, -2819.000000)" fill="#FFFFFF">
            <g id="Footer" transform="translate(0.000000, 2703.000000)">
                <g id="youtube" transform="translate(717.000000, 100.000000)">
                    <path d="M36.5496,27.504 L35.0976,27.504 L35.0976,26.716 C34.8276,27.009 34.5576,27.223 34.2646,27.38 C33.9716,27.527 33.6906,27.605 33.4206,27.605 C33.0826,27.605 32.8356,27.504 32.6546,27.29 C32.4866,27.076 32.3956,26.761 32.3956,26.333 L32.3956,20.39 L33.8486,20.39 L33.8486,25.838 C33.8486,26.007 33.8816,26.131 33.9386,26.198 C33.9946,26.277 34.0956,26.311 34.2306,26.311 C34.3326,26.311 34.4786,26.266 34.6356,26.165 C34.7936,26.063 34.9516,25.939 35.0866,25.782 L35.0866,20.379 L36.5386,20.379 L36.5496,27.504 Z M31.2256,25.737 C31.2256,26.345 31.0346,26.817 30.6626,27.166 C30.2796,27.515 29.7626,27.684 29.1096,27.684 C28.4786,27.684 27.9616,27.504 27.5786,27.144 C27.1956,26.784 27.0046,26.311 27.0046,25.703 L27.0046,22.022 C27.0046,21.471 27.1956,21.032 27.5896,20.705 C27.9836,20.379 28.5126,20.21 29.1656,20.21 C29.7626,20.21 30.2576,20.379 30.6406,20.728 C31.0226,21.077 31.2146,21.516 31.2146,22.056 L31.2146,25.737 L31.2256,25.737 Z M24.9786,23.508 L24.9786,27.504 L23.3466,27.504 L23.3466,23.688 L21.3986,17.869 L23.0426,17.869 L24.1006,21.718 L24.2016,21.718 L25.2146,17.869 L26.8806,17.869 L24.9786,23.508 Z M41.2316,16.102 L16.7276,16.102 C14.9496,16.102 13.4856,17.554 13.4856,19.343 L13.4856,26.232 C13.4856,28.011 14.9376,29.474 16.7276,29.474 L41.2316,29.474 C43.0106,29.474 44.4736,28.022 44.4736,26.232 L44.4736,19.343 C44.4626,17.554 43.0106,16.102 41.2316,16.102 L41.2316,16.102 Z M29.0986,21.448 C28.9176,21.448 28.7826,21.493 28.6706,21.595 C28.5576,21.685 28.5016,21.82 28.5016,21.966 L28.5016,25.838 C28.5016,26.029 28.5576,26.187 28.6596,26.288 C28.7606,26.401 28.9066,26.446 29.0986,26.446 C29.2896,26.446 29.4466,26.39 29.5706,26.277 C29.6836,26.165 29.7396,26.018 29.7396,25.827 L29.7396,21.955 C29.7396,21.797 29.6836,21.673 29.5596,21.583 C29.4466,21.493 29.2896,21.448 29.0986,21.448 L29.0986,21.448 Z M36.5836,36.272 L35.4466,36.272 L35.4466,35.62 C35.4466,35.349 35.4916,35.158 35.5816,35.046 C35.6716,34.922 35.8176,34.865 36.0206,34.865 C36.2116,34.865 36.3586,34.922 36.4486,35.046 C36.5386,35.158 36.5836,35.349 36.5836,35.62 L36.5836,36.272 Z M36.0766,33.74 C35.5026,33.74 35.0296,33.92 34.6586,34.269 C34.2986,34.618 34.1066,35.079 34.1066,35.642 L34.1066,38.546 C34.1066,39.165 34.2756,39.66 34.6026,40.009 C34.9286,40.37 35.3906,40.538 35.9646,40.538 C36.6056,40.538 37.0896,40.37 37.4166,40.043 C37.7426,39.706 37.9006,39.21 37.9006,38.546 L37.9006,38.22 L36.5726,38.22 L36.5726,38.512 C36.5726,38.895 36.5266,39.131 36.4486,39.244 C36.3586,39.357 36.2116,39.413 35.9976,39.413 C35.7956,39.413 35.6486,39.345 35.5586,39.221 C35.4686,39.086 35.4356,38.85 35.4356,38.512 L35.4356,37.297 L37.9006,37.297 L37.9006,35.631 C37.9006,35.023 37.7426,34.55 37.4276,34.224 C37.1236,33.897 36.6626,33.74 36.0766,33.74 L36.0766,33.74 Z M32.1036,38.839 C32.1036,39.041 32.0696,39.188 31.9906,39.278 C31.9116,39.368 31.7996,39.413 31.6416,39.413 C31.5296,39.413 31.4276,39.39 31.3266,39.345 C31.2256,39.3 31.1246,39.221 31.0226,39.12 L31.0226,35.102 C31.1126,35.012 31.2026,34.944 31.2926,34.91 C31.3826,34.865 31.4736,34.843 31.5636,34.843 C31.7316,34.843 31.8676,34.899 31.9686,35.012 C32.0586,35.124 32.1036,35.293 32.1036,35.507 L32.1036,38.839 Z M32.1826,33.819 C31.9796,33.819 31.7886,33.864 31.5856,33.976 C31.3946,34.078 31.2026,34.224 31.0346,34.426 L31.0346,31.612 L29.7286,31.612 L29.7286,40.358 L31.0346,40.358 L31.0346,39.863 C31.2026,40.066 31.3946,40.201 31.5856,40.302 C31.7766,40.392 32.0026,40.437 32.2606,40.437 C32.6436,40.437 32.9366,40.313 33.1386,40.077 C33.3416,39.829 33.4426,39.48 33.4426,39.019 L33.4426,35.439 C33.4426,34.91 33.3306,34.505 33.1166,34.235 C32.9026,33.954 32.5876,33.819 32.1826,33.819 L32.1826,33.819 Z M27.4656,38.805 C27.3426,38.94 27.2076,39.064 27.0606,39.154 C26.9146,39.244 26.7906,39.289 26.7006,39.289 C26.5766,39.289 26.4866,39.255 26.4306,39.188 C26.3746,39.12 26.3516,39.008 26.3516,38.861 L26.3516,33.909 L25.0576,33.909 L25.0576,39.312 C25.0576,39.694 25.1356,39.987 25.2826,40.178 C25.4286,40.37 25.6536,40.471 25.9576,40.471 C26.2056,40.471 26.4526,40.403 26.7006,40.268 C26.9596,40.133 27.2076,39.931 27.4436,39.672 L27.4436,40.381 L28.7496,40.381 L28.7496,33.92 L27.4546,33.92 L27.4546,38.805 L27.4656,38.805 Z M20.0366,32.873 L21.5456,32.873 L21.5456,40.358 L22.9976,40.358 L22.9976,32.873 L24.5056,32.873 L24.5056,31.601 L20.0366,31.601 L20.0366,32.873 Z"></path>
                </g>
            </g>
        </g>
    </g>
</svg>